Crispy Wide Medium.ufo
<glyph name="exclam" format="2">
  <advance width="769"/>
  <unicode hex="0021"/>
  <outline>
    <contour>
      <point x="148" y="377" type="line" identifier="1m237t4hyw"/>
      <point x="507" y="377" type="line" identifier="S4rO5KuHiL"/>
      <point x="544" y="445" type="line"/>
      <point x="544" y="1600" type="line" identifier="zfocDyDTCM"/>
      <point x="185" y="1600" type="line" identifier="v7N4yg5XNk"/>
      <point x="148" y="1529" type="line"/>
    </contour>
    <component base="period" xOffset="72"/>
  </outline>
</glyph>
<glyph name="comma" format="2">
  <advance width="1292"/>
  <unicode hex="002C"/>
  <outline>
    <contour>
      <point x="790" y="-511" type="line"/>
      <point x="968" y="1" type="line"/>
      <point x="968" y="311" type="line"/>
      <point x="654" y="311" type="line"/>
      <point x="596" y="207" type="line"/>
      <point x="596" y="0" type="line"/>
      <point x="760" y="0" type="line"/>
      <point x="760" y="-511" type="line"/>
    </contour>
  </outline>
</glyph>
<glyph name="period" format="2">
  <advance width="887"/>
  <unicode hex="002E"/>
  <outline>
    <contour>
      <point x="497" y="0" type="line" identifier="1m237t4hyw"/>
      <point x="545" y="68" type="line" identifier="v7N4yg5XNk"/>
      <point x="545" y="314" type="line"/>
      <point x="196" y="314" type="line" identifier="zfocDyDTCM"/>
      <point x="148" y="246" type="line"/>
      <point x="148" y="0" type="line" identifier="S4rO5KuHiL"/>
    </contour>
  </outline>
</glyph>
<glyph name="one" format="2">
  <advance width="4519"/>
  <unicode hex="0031"/>
  <outline>
    <contour>
      <point x="343" y="0" type="line"/>
      <point x="4177" y="0" type="line" identifier="CURJAw79Zl"/>
      <point x="4177" y="306" type="line" identifier="0DUCJo8xIi"/>
      <point x="2464" y="306" type="line" identifier="5nmxQXofSG"/>
      <point x="2464" y="1600" type="line" identifier="4rjIeWbSbx"/>
      <point x="385" y="1600" type="line"/>
      <point x="385" y="1294" type="line"/>
      <point x="2092" y="1294" type="line"/>
      <point x="2092" y="306" type="line"/>
      <point x="343" y="306" type="line"/>
    </contour>
  </outline>
</glyph>
<glyph name="three" format="2">
  <advance width="4758"/>
  <unicode hex="0033"/>
  <outline>
    <contour>
      <point x="324" y="0" type="line" identifier="O9abUc1nmN"/>
      <point x="4434" y="0" type="line" identifier="kMJYMTfXCq"/>
      <point x="4434" y="925" type="line" identifier="su2XmdS8e8"/>
      <point x="4095" y="925" type="line" identifier="JQaOzDQqlF"/>
      <point x="4095" y="1600" type="line" identifier="xg8x2Ki40p"/>
      <point x="383" y="1600" type="line" identifier="pE1XSRiy68"/>
      <point x="383" y="985" type="line" identifier="5lNstGRcSF"/>
      <point x="756" y="985" type="line" identifier="AcE5xKDZfE"/>
      <point x="756" y="1316" type="line" identifier="7ogBYufWpl"/>
      <point x="3722" y="1316" type="line" identifier="RHLvSX2Jv6"/>
      <point x="3722" y="926" type="line" identifier="iic1IBkDqp"/>
      <point x="1377" y="926" type="line" identifier="lRLJEhXMlO"/>
      <point x="1377" y="673" type="line" identifier="8aKgEELrVU"/>
      <point x="4062" y="673" type="line" identifier="Dm8zjmbhNr"/>
      <point x="4062" y="284" type="line" identifier="xv9CFHiFgB"/>
      <point x="696" y="284" type="line" identifier="YajKQV3MHP"/>
      <point x="696" y="616" type="line" identifier="36SchVkwze"/>
      <point x="324" y="616" type="line" identifier="tVui9PiOjA"/>
    </contour>
  </outline>
</glyph>
<glyph name="four" format="2">
  <advance width="4752"/>
  <unicode hex="0034"/>
  <outline>
    <contour>
      <point x="3650" y="0" type="line"/>
      <point x="4022" y="0" type="line"/>
      <point x="4022" y="616" type="line"/>
      <point x="4410" y="616" type="line"/>
      <point x="4410" y="922" type="line"/>
      <point x="4022" y="922" type="line"/>
      <point x="4022" y="1600" type="line"/>
      <point x="3650" y="1600" type="line"/>
      <point x="3650" y="922" type="line"/>
      <point x="712" y="922" type="line"/>
      <point x="712" y="1091" type="line"/>
      <point x="713" y="1607" type="line"/>
      <point x="341" y="1607" type="line"/>
      <point x="341" y="1091" type="line"/>
      <point x="341" y="616" type="line"/>
      <point x="3650" y="616" type="line"/>
    </contour>
  </outline>
</glyph>
<glyph name="six" format="2">
  <advance width="4755"/>
  <unicode hex="0036"/>
  <outline>
    <contour>
      <point x="341" y="0" type="line" identifier="uiw6aBUf4P"/>
      <point x="4413" y="0" type="line" identifier="jtYkxiUX6G"/>
      <point x="4413" y="941" type="line" identifier="2G5L37c87I"/>
      <point x="713" y="941" type="line"/>
      <point x="713" y="1095" type="line"/>
      <point x="1029" y="1316" type="line"/>
      <point x="4041" y="1316" type="line"/>
      <point x="4041" y="1066" type="line"/>
      <point x="4412" y="1066" type="line" identifier="Wuidbv6mUe"/>
      <point x="4412" y="1600" type="line" identifier="oGvEEuxnYv"/>
      <point x="827" y="1600" type="line" identifier="xR3pEHbMJx"/>
      <point x="341" y="1223" type="line" identifier="KnMArb0tv8"/>
    </contour>
    <contour>
      <point x="4041" y="657" type="line"/>
      <point x="4041" y="284" type="line"/>
      <point x="713" y="284" type="line"/>
      <point x="713" y="657" type="line"/>
    </contour>
  </outline>
</glyph>
<glyph name="eight" format="2">
  <advance width="4803"/>
  <unicode hex="0038"/>
  <outline>
    <contour>
      <point x="3740" y="658" type="line"/>
      <point x="4107" y="443" type="line"/>
      <point x="4107" y="284" type="line"/>
      <point x="695" y="284" type="line"/>
      <point x="695" y="434" type="line"/>
      <point x="1064" y="658" type="line"/>
    </contour>
    <contour>
      <point x="4111" y="792" type="line"/>
      <point x="4111" y="808" type="line"/>
      <point x="4476" y="1029" type="line"/>
      <point x="4476" y="1600" type="line"/>
      <point x="327" y="1600" type="line"/>
      <point x="327" y="1029" type="line"/>
      <point x="692" y="808" type="line"/>
      <point x="692" y="792" type="line"/>
      <point x="324" y="565" type="line"/>
      <point x="324" y="0" type="line"/>
      <point x="4479" y="0" type="line"/>
      <point x="4479" y="565" type="line"/>
    </contour>
    <contour>
      <point x="1064" y="942" type="line"/>
      <point x="699" y="1155" type="line"/>
      <point x="698" y="1316" type="line"/>
      <point x="4104" y="1316" type="line"/>
      <point x="4104" y="1155" type="line"/>
      <point x="3740" y="942" type="line"/>
    </contour>
  </outline>
</glyph>
<glyph name="nine" format="2">
  <advance width="4721"/>
  <unicode hex="0039"/>
  <outline>
    <contour>
      <point x="4397" y="1601" type="line" identifier="uiw6aBUf4P"/>
      <point x="324" y="1601" type="line" identifier="jtYkxiUX6G"/>
      <point x="324" y="665" type="line" identifier="2G5L37c87I"/>
      <point x="4026" y="665" type="line"/>
      <point x="4026" y="290" type="line"/>
      <point x="697" y="290" type="line"/>
      <point x="697" y="480" type="line"/>
      <point x="325" y="480" type="line" identifier="Wuidbv6mUe"/>
      <point x="325" y="1" type="line" identifier="oGvEEuxnYv"/>
      <point x="4397" y="1" type="line" identifier="xR3pEHbMJx"/>
    </contour>
    <contour>
      <point x="696" y="938" type="line"/>
      <point x="696" y="1312" type="line"/>
      <point x="4026" y="1312" type="line"/>
      <point x="4026" y="938" type="line"/>
    </contour>
  </outline>
</glyph>
<glyph name="D" format="2">
  <advance width="4976"/>
  <unicode hex="0044"/>
  <outline>
    <contour>
      <point x="475" y="0" type="line" identifier="IF8msvcgce"/>
      <point x="4147" y="0" type="line" identifier="ydeACnPZN4"/>
      <point x="4635" y="490" type="line" identifier="wIy2omw5Da"/>
      <point x="4635" y="1600" type="line" identifier="gh4oopoKIn"/>
      <point x="475" y="1600" type="line" identifier="hTYdJwlqIh"/>
    </contour>
    <contour>
      <point x="847" y="306" type="line" identifier="YShvMHvurg"/>
      <point x="847" y="1294" type="line" identifier="OGdfzPVlic"/>
      <point x="4263" y="1294" type="line" identifier="4w8cXO1HlF"/>
      <point x="4263" y="618" type="line" identifier="5OFemp6E2Y"/>
      <point x="3916" y="306" type="line" identifier="DiLdvAK6bW"/>
    </contour>
  </outline>
</glyph>
<glyph name="E" format="2">
  <advance width="4516"/>
  <unicode hex="0045"/>
  <outline>
    <contour>
      <point x="475" y="0" type="line" identifier="fZynkQ4XHB"/>
      <point x="4042" y="0" type="line" identifier="FAQNpgUPxV"/>
      <point x="4042" y="629" type="line" identifier="gHI0YjrPxR"/>
      <point x="3671" y="629" type="line" identifier="gxCIuXb4el"/>
      <point x="3671" y="284" type="line" identifier="5cgTYOhATF"/>
      <point x="846" y="284" type="line" identifier="bWs42DaCgU"/>
      <point x="846" y="658" type="line" identifier="VtD2aADJmn"/>
      <point x="3232" y="658" type="line" identifier="PpbsFdHAnS"/>
      <point x="3232" y="942" type="line" identifier="8WuC5p8Ax5"/>
      <point x="846" y="942" type="line" identifier="m39IWn9ntA"/>
      <point x="846" y="1316" type="line" identifier="gQ21I4SHQg"/>
      <point x="3670" y="1316" type="line" identifier="eqNb2VTwYs"/>
      <point x="3670" y="972" type="line" identifier="mLmcFoJA4m"/>
      <point x="4041" y="972" type="line" identifier="e79n7CoPy1"/>
      <point x="4041" y="1600" type="line" identifier="qYRmo14Il5"/>
      <point x="475" y="1600" type="line" identifier="HmJIcnLWfC"/>
    </contour>
  </outline>
</glyph>
<glyph name="M" format="2">
  <advance width="5812"/>
  <unicode hex="004D"/>
  <outline>
    <contour>
      <point x="2540" y="175" type="line" identifier="0Dn4Xpf57M"/>
      <point x="1161" y="1330" type="line"/>
      <point x="827" y="1330" type="line"/>
      <point x="827" y="0" type="line"/>
      <point x="457" y="0" type="line"/>
      <point x="457" y="1600" type="line"/>
      <point x="1375" y="1600" type="line"/>
      <point x="2692" y="502" type="line"/>
      <point x="3126" y="501" type="line" identifier="9aKZPM0HPh"/>
      <point x="4444" y="1600" type="line"/>
      <point x="5355" y="1600" type="line"/>
      <point x="5355" y="0" type="line"/>
      <point x="4984" y="0" type="line"/>
      <point x="4984" y="1330" type="line"/>
      <point x="4651" y="1330" type="line"/>
      <point x="3272" y="175" type="line" identifier="spdoeeCFft"/>
    </contour>
  </outline>
</glyph>
<glyph name="P" format="2">
  <advance width="4602"/>
  <unicode hex="0050"/>
  <outline>
    <contour>
      <point x="475" y="0" type="line" identifier="EG08jqU5fb"/>
      <point x="847" y="0" type="line" identifier="osRzIFK2Cu"/>
      <point x="847" y="503" type="line" identifier="hIFVovVRwe"/>
      <point x="4259" y="503" type="line" identifier="Tt6D8zYZmU"/>
      <point x="4259" y="1600" type="line" identifier="6xW04auDFu"/>
      <point x="475" y="1600" type="line" identifier="eETO5GBD5v"/>
    </contour>
    <contour>
      <point x="847" y="809" type="line" identifier="PIBVN1PGv1"/>
      <point x="847" y="1294" type="line" identifier="IZIZQr2gYJ"/>
      <point x="3887" y="1294" type="line" identifier="2c4LCF1E1R"/>
      <point x="3887" y="809" type="line" identifier="1WCnzth1GX"/>
    </contour>
  </outline>
</glyph>
<glyph name="S" format="2">
  <advance width="4398"/>
  <unicode hex="0053"/>
  <outline>
    <contour>
      <point x="342" y="0" type="line" identifier="09VlJ0BjUX"/>
      <point x="3605" y="0" type="line" identifier="EagWihqFM8"/>
      <point x="4087" y="504" type="line"/>
      <point x="4087" y="937" type="line" identifier="KfNuQA7eZe"/>
      <point x="715" y="937" type="line" identifier="At364YZFEy"/>
      <point x="715" y="973" type="line"/>
      <point x="1046" y="1312" type="line"/>
      <point x="3714" y="1312" type="line" identifier="3ZUkG35meB"/>
      <point x="3714" y="1106" type="line" identifier="DTOJhFIl15"/>
      <point x="4086" y="1106" type="line" identifier="9KDcrfQ5Ui"/>
      <point x="4086" y="1600" type="line" identifier="SaF9ojRFrW"/>
      <point x="823" y="1600" type="line"/>
      <point x="343" y="1089" type="line"/>
      <point x="343" y="663" type="line" identifier="3sQ8t8BZ6b"/>
      <point x="3715" y="663" type="line" identifier="yiV6OCBLHg"/>
      <point x="3715" y="621" type="line"/>
      <point x="3377" y="288" type="line" identifier="9kdl9SYsn8"/>
      <point x="714" y="288" type="line" identifier="yZDWuX8LLe"/>
      <point x="714" y="496" type="line" identifier="jYb9001DTm"/>
      <point x="342" y="496" type="line" identifier="ho4DrS0rdW"/>
    </contour>
  </outline>
</glyph>
<glyph name="W" format="2">
  <advance width="5938"/>
  <unicode hex="0057"/>
  <outline>
    <contour>
      <point x="3269" y="1257" type="line" identifier="0Dn4Xpf57M"/>
      <point x="4448" y="306" type="line"/>
      <point x="5105" y="306" type="line"/>
      <point x="5105" y="1600" type="line"/>
      <point x="5476" y="1600" type="line"/>
      <point x="5476" y="0" type="line"/>
      <point x="4260" y="0" type="line"/>
      <point x="3156" y="935" type="line"/>
      <point x="2795" y="935" type="line" identifier="9aKZPM0HPh"/>
      <point x="1691" y="0" type="line"/>
      <point x="475" y="0" type="line"/>
      <point x="475" y="1600" type="line"/>
      <point x="845" y="1600" type="line"/>
      <point x="845" y="306" type="line"/>
      <point x="1504" y="306" type="line"/>
      <point x="2683" y="1257" type="line" identifier="spdoeeCFft"/>
    </contour>
  </outline>
</glyph>
<glyph name="X" format="2">
  <advance width="4726"/>
  <unicode hex="0058"/>
  <outline>
    <contour>
      <point x="3653" y="635" type="line"/>
      <point x="4030" y="384" type="line"/>
      <point x="4030" y="0" type="line"/>
      <point x="4402" y="0" type="line"/>
      <point x="4402" y="530" type="line"/>
      <point x="4006" y="783" type="line"/>
      <point x="4006" y="785" type="line"/>
      <point x="4399" y="785" type="line"/>
      <point x="4399" y="1600" type="line"/>
      <point x="4027" y="1600" type="line"/>
      <point x="4027" y="941" type="line"/>
      <point x="3705" y="941" type="line"/>
      <point x="1020" y="941" type="line"/>
      <point x="699" y="1137" type="line"/>
      <point x="699" y="1600" type="line"/>
      <point x="327" y="1600" type="line"/>
      <point x="327" y="1006" type="line"/>
      <point x="721" y="785" type="line"/>
      <point x="721" y="784" type="line"/>
      <point x="324" y="784" type="line"/>
      <point x="324" y="0" type="line"/>
      <point x="696" y="0" type="line"/>
      <point x="696" y="635" type="line"/>
      <point x="1072" y="635" type="line"/>
    </contour>
  </outline>
</glyph>
<glyph name="Z" format="2">
  <advance width="4571"/>
  <unicode hex="005A"/>
  <outline>
    <contour>
      <point x="324" y="0" type="line"/>
      <point x="4247" y="0" type="line" identifier="pzdvPTirLJ"/>
      <point x="4247" y="642" type="line" identifier="91SxUS0iwG"/>
      <point x="3874" y="642" type="line"/>
      <point x="3874" y="284" type="line"/>
      <point x="696" y="284" type="line"/>
      <point x="696" y="458" type="line"/>
      <point x="4234" y="1064" type="line" identifier="yyb1NCCI5w"/>
      <point x="4234" y="1600" type="line" identifier="5FogYRSgkk"/>
      <point x="335" y="1600" type="line" identifier="svlFvrau4c"/>
      <point x="335" y="1012" type="line" identifier="LQ9fBsTy9K"/>
      <point x="705" y="1012" type="line"/>
      <point x="705" y="1316" type="line"/>
      <point x="3862" y="1316" type="line"/>
      <point x="3862" y="1228" type="line"/>
      <point x="325" y="661" type="line" identifier="teVKnpBcVb"/>
    </contour>
  </outline>
</glyph>
<glyph name="B.skinnymiddle" format="2">
  <advance width="4915"/>
  <outline>
    <contour>
      <point x="475" y="0" type="line" identifier="hvY9r8RmLr"/>
      <point x="4092" y="0" type="line" identifier="9QFpw7nfq7"/>
      <point x="4574" y="508" type="line"/>
      <point x="4574" y="914" type="line" identifier="543PerILpr"/>
      <point x="3980" y="914" type="line" identifier="zhomauHW30"/>
      <point x="4182" y="1070" type="line"/>
      <point x="4182" y="1600" type="line" identifier="FaP204GrdB"/>
      <point x="475" y="1600" type="line" identifier="JEev70GAj6"/>
    </contour>
    <contour>
      <point x="847" y="289" type="line" identifier="jaMSiLrCua"/>
      <point x="847" y="689" type="line" identifier="XSrxNd2axx"/>
      <point x="4202" y="689" type="line" identifier="lsRGatjQja"/>
      <point x="4202" y="621" type="line"/>
      <point x="3864" y="289" type="line" identifier="xhlDJ3CjD5"/>
    </contour>
    <contour>
      <point x="847" y="911" type="line" identifier="By7dfMihfe"/>
      <point x="847" y="1311" type="line" identifier="1p5hKrurVy"/>
      <point x="3811" y="1311" type="line" identifier="Qby8aMtF2X"/>
      <point x="3811" y="1066" type="line"/>
      <point x="3609" y="911" type="line" identifier="xpxyvIzPoc"/>
    </contour>
  </outline>
</glyph>
<glyph name="C.wide" format="2">
  <advance width="4437"/>
  <outline>
    <contour>
      <point x="324" y="0" type="line" identifier="7lPhzTnk2Z"/>
      <point x="4114" y="0" type="line" identifier="qJVLZGnkwh"/>
      <point x="4114" y="306" type="line" identifier="Y750RHTvDj"/>
      <point x="695" y="306" type="line" identifier="L2LsGnXiZ2"/>
      <point x="695" y="968" type="line" identifier="sUWsr03vF4"/>
      <point x="1009" y="1294" type="line" identifier="dbOUe6OhxL"/>
      <point x="4113" y="1294" type="line" identifier="5BjRbcud80"/>
      <point x="4113" y="1600" type="line" identifier="9eJelv8BOw"/>
      <point x="804" y="1600" type="line" identifier="lfZev3ICaC"/>
      <point x="324" y="1085" type="line" identifier="V1EWIdPahq"/>
    </contour>
  </outline>
</glyph>
<glyph name="E.wide" format="2">
  <advance width="4607"/>
  <outline>
    <contour>
      <point x="475" y="0" type="line" identifier="fZynkQ4XHB"/>
      <point x="4185" y="0" type="line" identifier="FAQNpgUPxV"/>
      <point x="4185" y="288" type="line" identifier="5cgTYOhATF"/>
      <point x="846" y="288" type="line" identifier="bWs42DaCgU"/>
      <point x="846" y="664" type="line" identifier="VtD2aADJmn"/>
      <point x="3817" y="664" type="line" identifier="PpbsFdHAnS"/>
      <point x="3817" y="936" type="line" identifier="8WuC5p8Ax5"/>
      <point x="846" y="936" type="line" identifier="m39IWn9ntA"/>
      <point x="846" y="1312" type="line" identifier="gQ21I4SHQg"/>
      <point x="4175" y="1312" type="line" identifier="eqNb2VTwYs"/>
      <point x="4175" y="1600" type="line" identifier="qYRmo14Il5"/>
      <point x="475" y="1600" type="line" identifier="HmJIcnLWfC"/>
    </contour>
  </outline>
</glyph>
<glyph name="F.wide" format="2">
  <advance width="4753"/>
  <outline>
    <contour>
      <point x="475" y="0" type="line" identifier="oAgH2tA6DJ"/>
      <point x="847" y="0" type="line" identifier="zCZyMcW5ho"/>
      <point x="847" y="568" type="line" identifier="yHYqkMd7LI"/>
      <point x="3999" y="568" type="line" identifier="NmB7yyQuio"/>
      <point x="3999" y="875" type="line" identifier="wQk2C8zPHh"/>
      <point x="847" y="875" type="line" identifier="4cFHKQfHDt"/>
      <point x="847" y="1294" type="line" identifier="ZvzwyrcwpS"/>
      <point x="4278" y="1294" type="line" identifier="4E754ovOIe"/>
      <point x="4278" y="1600" type="line" identifier="NUrIjqOB7J"/>
      <point x="475" y="1600" type="line" identifier="TBAYuCfUFX"/>
    </contour>
  </outline>
</glyph>
<glyph name="G.wideskinny" format="2">
  <advance width="4551"/>
  <outline>
    <contour>
      <point x="324" y="0" type="line" identifier="7lPhzTnk2Z"/>
      <point x="4346" y="0" type="line" identifier="qJVLZGnkwh"/>
      <point x="4346" y="908" type="line" identifier="uek1NNj7De"/>
      <point x="2989" y="908" type="line" identifier="qcvimxjndX"/>
      <point x="2989" y="689" type="line" identifier="EARaY3Su65"/>
      <point x="3974" y="689" type="line" identifier="4m6dHLVhZq"/>
      <point x="3974" y="289" type="line" identifier="Y750RHTvDj"/>
      <point x="696" y="289" type="line" identifier="L2LsGnXiZ2"/>
      <point x="696" y="970" type="line" identifier="sUWsr03vF4"/>
      <point x="1009" y="1311" type="line" identifier="dbOUe6OhxL"/>
      <point x="4340" y="1311" type="line" identifier="5BjRbcud80"/>
      <point x="4340" y="1600" type="line" identifier="9eJelv8BOw"/>
      <point x="805" y="1600" type="line" identifier="lfZev3ICaC"/>
      <point x="324" y="1086" type="line" identifier="V1EWIdPahq"/>
    </contour>
  </outline>
</glyph>
<glyph name="L.wide" format="2">
  <advance width="4225"/>
  <outline>
    <contour>
      <point x="457" y="0" type="line" identifier="XkJNfQlnnt"/>
      <point x="3884" y="0" type="line" identifier="82EXZEgt46"/>
      <point x="3884" y="306" type="line" identifier="cqpSxwFiM3"/>
      <point x="829" y="306" type="line" identifier="MbxRZRd8vz"/>
      <point x="829" y="1600" type="line" identifier="lYiaKSKITt"/>
      <point x="457" y="1600" type="line" identifier="XFf4mMUzYo"/>
    </contour>
  </outline>
</glyph>
<glyph name="M.narrow" format="2">
  <advance width="6082"/>
  <outline>
    <contour>
      <point x="5235" y="0" type="line" smooth="yes" identifier="12Pyby1xY2"/>
      <point x="5608" y="0" type="line" smooth="yes" identifier="5LJg4ajoG6"/>
      <point x="5608" y="1600" type="line" smooth="yes" identifier="ZqTZqAY3uY"/>
      <point x="832" y="1600" type="line" smooth="yes" identifier="R4lklfJsHA"/>
      <point x="341" y="1107" type="line" smooth="yes" identifier="7g7f8Wu7K4"/>
      <point x="341" y="0" type="line" smooth="yes" identifier="RTOJW56qXy"/>
      <point x="714" y="0" type="line" identifier="JfSFAkWGZC"/>
      <point x="714" y="942" type="line" smooth="yes" identifier="WWvGwSpq0g"/>
      <point x="1077" y="1293" type="line" smooth="yes" identifier="oee4nqI8Wl"/>
      <point x="2787" y="1293" type="line" identifier="Ljn2lpvpG8"/>
      <point x="2787" y="52" type="line" smooth="yes"/>
      <point x="3159" y="52" type="line"/>
      <point x="3159" y="1293" type="line" identifier="GlWB6PG54Z"/>
      <point x="5235" y="1293" type="line" identifier="iqeTRv7HXg"/>
    </contour>
  </outline>
</glyph>
<glyph name="N.wide" format="2">
  <advance width="4397"/>
  <outline>
    <contour>
      <point x="384" y="0" type="line" identifier="CkwYPPvJLv"/>
      <point x="755" y="0" type="line" identifier="oHTJsN7drZ"/>
      <point x="755" y="1290" type="line" identifier="wfBbYd10Pm"/>
      <point x="1086" y="1290" type="line" identifier="MEnBDHq6zU"/>
      <point x="3651" y="0" type="line" identifier="3Nbopwznvn"/>
      <point x="4459" y="0" type="line" identifier="uKfuudIUvA"/>
      <point x="4459" y="1600" type="line" identifier="XRdLFXiM4t"/>
      <point x="4088" y="1600" type="line" identifier="MUSJPjCIXg"/>
      <point x="4088" y="311" type="line" identifier="VILP20cFmq"/>
      <point x="3757" y="311" type="line" identifier="z5b04GDwRN"/>
      <point x="1192" y="1600" type="line" identifier="LL64NQ6WBE"/>
      <point x="384" y="1600" type="line" identifier="dzUaaP1sjt"/>
    </contour>
  </outline>
</glyph>
<glyph name="P.wide" format="2">
  <advance width="4371"/>
  <outline>
    <contour>
      <point x="265" y="0" type="line" identifier="EG08jqU5fb"/>
      <point x="637" y="0" type="line" identifier="osRzIFK2Cu"/>
      <point x="637" y="485" type="line" identifier="hIFVovVRwe"/>
      <point x="4101" y="485" type="line" identifier="Tt6D8zYZmU"/>
      <point x="4101" y="1600" type="line" identifier="6xW04auDFu"/>
      <point x="265" y="1600" type="line" identifier="eETO5GBD5v"/>
    </contour>
    <contour>
      <point x="637" y="796" type="line" identifier="PIBVN1PGv1"/>
      <point x="637" y="1294" type="line" identifier="IZIZQr2gYJ"/>
      <point x="3729" y="1294" type="line" identifier="2c4LCF1E1R"/>
      <point x="3729" y="796" type="line" identifier="1WCnzth1GX"/>
    </contour>
  </outline>
</glyph>
<glyph name="R.wide" format="2">
  <advance width="4649"/>
  <outline>
    <contour>
      <point x="3797" y="0" type="line"/>
      <point x="4170" y="0" type="line"/>
      <point x="3665" y="669" type="line"/>
      <point x="3319" y="668" type="line"/>
    </contour>
    <contour>
      <point x="457" y="-1" type="line" identifier="EG08jqU5fb"/>
      <point x="829" y="-1" type="line" identifier="osRzIFK2Cu"/>
      <point x="829" y="647" type="line" identifier="hIFVovVRwe"/>
      <point x="4242" y="647" type="line" identifier="Tt6D8zYZmU"/>
      <point x="4242" y="1599" type="line" identifier="6xW04auDFu"/>
      <point x="457" y="1599" type="line" identifier="eETO5GBD5v"/>
    </contour>
    <contour>
      <point x="829" y="953" type="line" identifier="PIBVN1PGv1"/>
      <point x="829" y="1293" type="line" identifier="IZIZQr2gYJ"/>
      <point x="3870" y="1293" type="line" identifier="2c4LCF1E1R"/>
      <point x="3870" y="953" type="line" identifier="1WCnzth1GX"/>
    </contour>
  </outline>
</glyph>
<glyph name="S.wide" format="2">
  <advance width="4585"/>
  <outline>
    <contour>
      <point x="342" y="0" type="line" identifier="09VlJ0BjUX"/>
      <point x="3694" y="0" type="line" identifier="EagWihqFM8"/>
      <point x="4208" y="499" type="line"/>
      <point x="4209" y="937" type="line" identifier="KfNuQA7eZe"/>
      <point x="715" y="936" type="line" identifier="At364YZFEy"/>
      <point x="715" y="972" type="line"/>
      <point x="1046" y="1312" type="line"/>
      <point x="4206" y="1312" type="line" identifier="3ZUkG35meB"/>
      <point x="4206" y="1600" type="line" identifier="SaF9ojRFrW"/>
      <point x="892" y="1600" type="line"/>
      <point x="378" y="1089" type="line"/>
      <point x="378" y="663" type="line" identifier="3sQ8t8BZ6b"/>
      <point x="3871" y="663" type="line" identifier="yiV6OCBLHg"/>
      <point x="3871" y="621" type="line"/>
      <point x="3533" y="288" type="line" identifier="9kdl9SYsn8"/>
      <point x="342" y="288" type="line" identifier="yZDWuX8LLe"/>
    </contour>
  </outline>
</glyph>
<glyph name="S.wideskinny" format="2">
  <advance width="4550"/>
  <outline>
    <contour>
      <point x="359" y="0" type="line" identifier="09VlJ0BjUX"/>
      <point x="3711" y="0" type="line" identifier="EagWihqFM8"/>
      <point x="4191" y="499" type="line"/>
      <point x="4191" y="911" type="line" identifier="KfNuQA7eZe"/>
      <point x="662" y="911" type="line" identifier="At364YZFEy"/>
      <point x="662" y="972" type="line"/>
      <point x="994" y="1312" type="line"/>
      <point x="4183" y="1312" type="line" identifier="3ZUkG35meB"/>
      <point x="4182" y="1600" type="line" identifier="SaF9ojRFrW"/>
      <point x="840" y="1600" type="line"/>
      <point x="361" y="1089" type="line"/>
      <point x="361" y="689" type="line" identifier="3sQ8t8BZ6b"/>
      <point x="3889" y="689" type="line" identifier="yiV6OCBLHg"/>
      <point x="3889" y="621" type="line"/>
      <point x="3551" y="288" type="line" identifier="9kdl9SYsn8"/>
      <point x="359" y="288" type="line" identifier="yZDWuX8LLe"/>
    </contour>
  </outline>
</glyph>
<glyph name="U.alt" format="2">
  <advance width="4454"/>
  <outline>
    <contour>
      <point x="3829" y="1600" type="line" smooth="yes"/>
      <point x="3829" y="306" type="line"/>
      <point x="624" y="306" type="line" smooth="yes"/>
      <point x="624" y="1600" type="line"/>
      <point x="252" y="1600" type="line" smooth="yes"/>
      <point x="252" y="0" type="line" smooth="yes"/>
      <point x="4202" y="0" type="line" smooth="yes"/>
      <point x="4202" y="1600" type="line" smooth="yes"/>
    </contour>
  </outline>
</glyph>
<glyph name="Y.wide" format="2">
  <advance width="4909"/>
  <outline>
    <contour>
      <point x="484" y="0" type="line"/>
      <point x="4434" y="0" type="line" identifier="oOtn61SmRY"/>
      <point x="4434" y="1600" type="line" identifier="8OglXgblhr"/>
      <point x="4062" y="1600" type="line" identifier="db0bPhBdaU"/>
      <point x="4062" y="960" type="line" identifier="MTAeavIVWY"/>
      <point x="847" y="960" type="line" identifier="lggLiivmLt"/>
      <point x="847" y="1600" type="line" identifier="UPaHY3UudR"/>
      <point x="475" y="1600" type="line" identifier="ZnCDQVdtyD"/>
      <point x="475" y="671" type="line" identifier="uqAJBjDIOT"/>
      <point x="4062" y="671" type="line" identifier="7JgTtdb0jg"/>
      <point x="4062" y="289" type="line"/>
      <point x="484" y="289" type="line"/>
    </contour>
  </outline>
</glyph>
<glyph name="Y.wideskinny" format="2">
  <advance width="4909"/>
  <outline>
    <contour>
      <point x="484" y="0" type="line"/>
      <point x="4434" y="0" type="line" identifier="oOtn61SmRY"/>
      <point x="4434" y="1600" type="line" identifier="8OglXgblhr"/>
      <point x="4062" y="1600" type="line" identifier="db0bPhBdaU"/>
      <point x="4062" y="903" type="line" identifier="MTAeavIVWY"/>
      <point x="846" y="903" type="line" identifier="lggLiivmLt"/>
      <point x="846" y="1600" type="line" identifier="UPaHY3UudR"/>
      <point x="474" y="1600" type="line" identifier="ZnCDQVdtyD"/>
      <point x="474" y="681" type="line" identifier="uqAJBjDIOT"/>
      <point x="4062" y="681" type="line" identifier="7JgTtdb0jg"/>
      <point x="4062" y="289" type="line"/>
      <point x="484" y="289" type="line"/>
    </contour>
  </outline>
</glyph>
<glyph name="Z.wide" format="2">
  <advance width="4493"/>
  <outline>
    <contour>
      <point x="313" y="0" type="line"/>
      <point x="4186" y="0" type="line" identifier="pzdvPTirLJ"/>
      <point x="4186" y="283" type="line"/>
      <point x="727" y="283" type="line"/>
      <point x="727" y="507" type="line"/>
      <point x="4169" y="986" type="line" identifier="yyb1NCCI5w"/>
      <point x="4169" y="1600" type="line" identifier="5FogYRSgkk"/>
      <point x="322" y="1600" type="line" identifier="svlFvrau4c"/>
      <point x="322" y="1316" type="line"/>
      <point x="3710" y="1316" type="line"/>
      <point x="3710" y="1174" type="line"/>
      <point x="313" y="699" type="line" identifier="teVKnpBcVb"/>
    </contour>
  </outline>
</glyph>
<glyph name="eight.skinnymiddle" format="2">
  <advance width="4838"/>
  <outline>
    <contour>
      <point x="3758" y="684" type="line"/>
      <point x="4125" y="469" type="line"/>
      <point x="4125" y="284" type="line"/>
      <point x="713" y="284" type="line"/>
      <point x="713" y="460" type="line"/>
      <point x="1081" y="684" type="line"/>
    </contour>
    <contour>
      <point x="4128" y="792" type="line"/>
      <point x="4128" y="808" type="line"/>
      <point x="4494" y="1029" type="line"/>
      <point x="4494" y="1600" type="line"/>
      <point x="344" y="1600" type="line"/>
      <point x="344" y="1029" type="line"/>
      <point x="710" y="808" type="line"/>
      <point x="710" y="792" type="line"/>
      <point x="341" y="565" type="line"/>
      <point x="341" y="0" type="line"/>
      <point x="4497" y="0" type="line"/>
      <point x="4497" y="565" type="line"/>
    </contour>
    <contour>
      <point x="1081" y="916" type="line"/>
      <point x="716" y="1129" type="line"/>
      <point x="716" y="1316" type="line"/>
      <point x="4122" y="1316" type="line"/>
      <point x="4121" y="1129" type="line"/>
      <point x="3757" y="916" type="line"/>
    </contour>
  </outline>
</glyph>
<glyph name="five.wide" format="2">
  <advance width="4666"/>
  <outline>
    <contour>
      <point x="325" y="0" type="line" identifier="09VlJ0BjUX"/>
      <point x="4342" y="0" type="line" identifier="EagWihqFM8"/>
      <point x="4342" y="937" type="line" identifier="KfNuQA7eZe"/>
      <point x="695" y="937" type="line" identifier="At364YZFEy"/>
      <point x="695" y="1311" type="line" identifier="BcuLfvaQKC"/>
      <point x="4342" y="1311" type="line" identifier="3ZUkG35meB"/>
      <point x="4342" y="1600" type="line" identifier="SaF9ojRFrW"/>
      <point x="324" y="1600" type="line" identifier="F4sQEYelA8"/>
      <point x="324" y="663" type="line" identifier="3sQ8t8BZ6b"/>
      <point x="3971" y="663" type="line" identifier="yiV6OCBLHg"/>
      <point x="3971" y="289" type="line" identifier="9kdl9SYsn8"/>
      <point x="325" y="289" type="line" identifier="yZDWuX8LLe"/>
    </contour>
  </outline>
</glyph>
<glyph name="nine.wide" format="2">
  <advance width="4471"/>
  <outline>
    <contour>
      <point x="372" y="0" type="line" identifier="oGvEEuxnYv"/>
      <point x="4383" y="0" type="line" identifier="xR3pEHbMJx"/>
      <point x="4383" y="1600" type="line" identifier="uiw6aBUf4P"/>
      <point x="371" y="1600" type="line" identifier="jtYkxiUX6G"/>
      <point x="371" y="663" type="line" identifier="2G5L37c87I"/>
      <point x="4011" y="663" type="line"/>
      <point x="4011" y="289" type="line"/>
      <point x="372" y="289" type="line"/>
    </contour>
    <contour>
      <point x="743" y="937" type="line"/>
      <point x="743" y="1311" type="line"/>
      <point x="4011" y="1311" type="line"/>
      <point x="4011" y="937" type="line"/>
    </contour>
  </outline>
</glyph>
<glyph name="one.narrow" format="2">
  <advance width="2997"/>
  <outline>
    <contour>
      <point x="2522" y="0" type="line" identifier="5nmxQXofSG"/>
      <point x="2522" y="1600" type="line" identifier="4rjIeWbSbx"/>
      <point x="341" y="1600" type="line"/>
      <point x="341" y="1294" type="line"/>
      <point x="2150" y="1294" type="line"/>
      <point x="2150" y="0" type="line"/>
    </contour>
  </outline>
</glyph>
<glyph name="seven.alt" format="2">
  <advance width="4103"/>
  <outline>
    <contour>
      <point x="307" y="1600" type="line" identifier="jiO9eX9U07"/>
      <point x="3836" y="1600" type="line" identifier="wgpFs1yguc"/>
      <point x="3836" y="0" type="line" identifier="d5Di3vNzni"/>
      <point x="3463" y="0" type="line" identifier="46RrD1WET2"/>
      <point x="3463" y="1294" type="line" identifier="zFXsE8BUYG"/>
      <point x="651" y="1294" type="line" identifier="NQmE31PUns"/>
      <point x="651" y="756" type="line" identifier="qiXxY6YhCq"/>
      <point x="307" y="756" type="line" identifier="7exNZv1XSc"/>
    </contour>
  </outline>
</glyph>
<glyph name="six.wide" format="2">
  <advance width="4446"/>
  <outline>
    <contour>
      <point x="320" y="0" type="line" identifier="uiw6aBUf4P"/>
      <point x="4362" y="0" type="line" identifier="jtYkxiUX6G"/>
      <point x="4362" y="934" type="line" identifier="2G5L37c87I"/>
      <point x="691" y="934" type="line"/>
      <point x="691" y="1083" type="line"/>
      <point x="1007" y="1311" type="line"/>
      <point x="4361" y="1311" type="line"/>
      <point x="4361" y="1600" type="line" identifier="oGvEEuxnYv"/>
      <point x="802" y="1600" type="line" identifier="xR3pEHbMJx"/>
      <point x="320" y="1210" type="line" identifier="KnMArb0tv8"/>
    </contour>
    <contour>
      <point x="3990" y="663" type="line"/>
      <point x="3990" y="289" type="line"/>
      <point x="691" y="289" type="line"/>
      <point x="691" y="663" type="line"/>
    </contour>
  </outline>
</glyph>
<glyph name="three.wide" format="2">
  <advance width="4927"/>
  <outline>
    <contour>
      <point x="342" y="0" type="line" identifier="O9abUc1nmN"/>
      <point x="4452" y="0" type="line" identifier="kMJYMTfXCq"/>
      <point x="4452" y="934" type="line" identifier="su2XmdS8e8"/>
      <point x="4072" y="934" type="line" identifier="JQaOzDQqlF"/>
      <point x="4072" y="1600" type="line" identifier="xg8x2Ki40p"/>
      <point x="374" y="1600" type="line" identifier="pE1XSRiy68"/>
      <point x="374" y="1311" type="line" identifier="7ogBYufWpl"/>
      <point x="3700" y="1311" type="line" identifier="RHLvSX2Jv6"/>
      <point x="3700" y="936" type="line" identifier="iic1IBkDqp"/>
      <point x="970" y="936" type="line" identifier="lRLJEhXMlO"/>
      <point x="970" y="663" type="line" identifier="8aKgEELrVU"/>
      <point x="4080" y="663" type="line" identifier="Dm8zjmbhNr"/>
      <point x="4080" y="289" type="line" identifier="xv9CFHiFgB"/>
      <point x="342" y="289" type="line" identifier="YajKQV3MHP"/>
    </contour>
  </outline>
</glyph>
<glyph name="two.wide" format="2">
  <advance width="4438"/>
  <outline>
    <contour>
      <point x="416" y="0" type="line"/>
      <point x="4256" y="0" type="line" identifier="pzdvPTirLJ"/>
      <point x="4256" y="289" type="line"/>
      <point x="788" y="289" type="line"/>
      <point x="788" y="664" type="line"/>
      <point x="4254" y="664" type="line" identifier="yyb1NCCI5w"/>
      <point x="4254" y="1600" type="line" identifier="5FogYRSgkk"/>
      <point x="419" y="1600" type="line" identifier="svlFvrau4c"/>
      <point x="419" y="1311" type="line"/>
      <point x="3882" y="1311" type="line"/>
      <point x="3882" y="935" type="line"/>
      <point x="416" y="935" type="line" identifier="teVKnpBcVb"/>
    </contour>
  </outline>
</glyph>
